<?xml version="1.0" encoding="utf-8"?>
<!-- Generator: Adobe Illustrator 16.0.0, SVG Export Plug-In . SVG Version: 6.00 Build 0)  -->
<!DOCTYPE svg PUBLIC "-//W3C//DTD SVG 1.1//EN" "http://www.w3.org/Graphics/SVG/1.1/DTD/svg11.dtd">
<svg version="1.1" id="Layer_1" xmlns="http://www.w3.org/2000/svg" xmlns:xlink="http://www.w3.org/1999/xlink" x="0px" y="0px"
	 width="980px" height="600px" viewBox="0 0 980 600" enable-background="new 0 0 980 600" xml:space="preserve">
<rect fill="#242424" width="980" height="600"/>
<path fill="#424242" d="M470.59,223.463c-10.419,10.474-15.702,20.659-15.701,30.271c0,22.041,15.455,30.188,20.19,32.164
	c4.167,1.733,7.523,2.088,9.654,1.918l0.515-7.494l-17.82-17.163l18.296,10.271l0.763-11.082l-13.596-14.854l14.002,8.947
	l2.978-25.524l3.126,25.604l14.113-9.027l-13.686,14.945l0.795,11.024l18.352-10.307l-17.854,17.196l0.53,7.369
	c0.271,0.021,0.562,0.032,0.884,0.034c5.133,0.011,13.113-2.795,19.368-9.082c4.386-4.407,9.611-12.313,9.612-24.94
	c0-21.885-27.51-40.885-35.143-45.733C486.321,210.32,478.127,215.885,470.59,223.463L470.59,223.463L470.59,223.463z"/>
<g>
	<path fill="#424242" d="M250.769,331.697c0-12.144,8.88-20.842,21.083-20.842c12.142,0,21.022,8.699,21.022,20.842
		s-8.88,20.84-21.022,20.84C259.65,352.535,250.769,343.838,250.769,331.697z M284.055,331.697c0-7.553-4.772-13.229-12.203-13.229
		c-7.49,0-12.263,5.678-12.263,13.229c0,7.488,4.772,13.229,12.263,13.229C279.282,344.925,284.055,339.186,284.055,331.697z"/>
	<path fill="#424242" d="M319.276,351.812l-7.914-14.317h-6.283v14.317h-8.578v-40.293h18.847c8.397,0,13.592,5.498,13.592,12.988
		c0,7.067-4.531,10.934-8.88,11.961l9.122,15.344H319.276z M320.122,324.447c0-3.322-2.597-5.377-5.98-5.377h-9.062v10.873h9.062
		C317.525,329.943,320.122,327.89,320.122,324.447z"/>
	<path fill="#424242" d="M330.998,331.697c0-12.748,9.665-20.842,21.505-20.842c8.337,0,13.592,4.229,16.613,9l-7.068,3.866
		c-1.873-2.839-5.316-5.255-9.544-5.255c-7.37,0-12.686,5.617-12.686,13.23c0,7.608,5.315,13.229,12.686,13.229
		c3.564,0,6.887-1.57,8.518-3.081v-4.832H350.39v-7.491h19.209v15.465c-4.107,4.59-9.846,7.551-17.095,7.551
		C340.663,352.535,330.998,344.382,330.998,331.697z"/>
	<path fill="#424242" d="M401.86,351.812l-2.538-6.825h-17.276l-2.537,6.825h-9.726l15.524-40.292h10.752l15.525,40.292H401.86z
		 M390.684,320.098l-6.282,17.337h12.564L390.684,320.098z"/>
	<path fill="#424242" d="M441.913,351.812l-19.21-26.276v26.276h-8.577v-40.293h8.82l18.666,25.312v-25.312h8.578v40.292
		L441.913,351.812L441.913,351.812z"/>
	<path fill="#424242" d="M455.749,351.812v-40.293h8.578v40.292L455.749,351.812L455.749,351.812z"/>
	<path fill="#424242" d="M469.161,331.697c0-12.445,9.363-20.842,21.506-20.842c8.82,0,13.955,4.772,16.792,9.846l-7.367,3.625
		c-1.691-3.262-5.316-5.858-9.425-5.858c-7.368,0-12.687,5.618-12.687,13.229c0,7.609,5.316,13.229,12.687,13.229
		c4.107,0,7.732-2.6,9.425-5.859l7.367,3.563c-2.838,5.014-7.973,9.905-16.792,9.905
		C478.524,352.535,469.161,344.078,469.161,331.697z"/>
	<path fill="#424242" d="M526.311,351.812V314.66h-13.17v-3.141h29.844v3.141h-13.17v37.151H526.311z"/>
	<path fill="#424242" d="M579.109,351.812v-19.149h-25.551v19.147h-3.445v-40.291h3.445v18.002h25.551v-18.002h3.443v40.292
		L579.109,351.812L579.109,351.812z"/>
	<path fill="#424242" d="M591.375,351.812v-40.293h25.553v3.142h-22.109v14.92h21.689v3.143h-21.689v15.947h22.109v3.142H591.375z"
		/>
	<path fill="#424242" d="M658.432,351.812v-35.942l-14.68,35.941h-1.33l-14.738-35.941v35.941h-3.443v-40.292h5.137l13.713,33.526
		l13.65-33.526h5.193v40.292L658.432,351.812L658.432,351.812z"/>
	<path fill="#424242" d="M669.549,351.812v-40.293h25.553v3.142h-22.109v14.92h21.689v3.143h-21.689v15.947h22.109v3.142H669.549z"
		/>
	<path fill="#424242" d="M700.18,346.133l2.234-2.598c2.598,2.959,6.824,5.858,12.625,5.858c8.215,0,10.568-4.592,10.568-8.035
		c0-11.839-24.162-5.679-24.162-19.753c0-6.584,5.92-10.752,13.23-10.752c5.979,0,10.57,2.114,13.648,5.678l-2.295,2.537
		c-2.896-3.504-7.008-5.074-11.535-5.074c-5.379,0-9.426,3.082-9.426,7.431c0,10.33,24.162,4.651,24.162,19.692
		c0,5.194-3.441,11.416-14.314,11.416C708.273,352.535,703.26,349.818,700.18,346.133z"/>
</g>
</svg>
